<mxfile host="Electron" agent="Mozilla/5.0 (Windows NT 10.0; Win64; x64) AppleWebKit/537.36 (KHTML, like Gecko) draw.io/26.0.4 Chrome/128.0.6613.186 Electron/32.2.5 Safari/537.36" version="26.0.4">
  <diagram name="Page-1" id="3vIR2HpVTP0UQyiUp9Tj">
    <mxGraphModel dx="1034" dy="612" grid="1" gridSize="10" guides="1" tooltips="1" connect="1" arrows="1" fold="1" page="1" pageScale="1" pageWidth="3300" pageHeight="4681" math="0" shadow="0">
      <root>
        <mxCell id="0" />
        <mxCell id="1" parent="0" />
        <mxCell id="pif8Dmov2KubNqpBboYz-1" value="Bus Simulation FMU" style="rounded=1;whiteSpace=wrap;html=1;verticalAlign=bottom;" vertex="1" parent="1">
          <mxGeometry x="355" y="649" width="411" height="57" as="geometry" />
        </mxCell>
        <mxCell id="pif8Dmov2KubNqpBboYz-2" value="FMU" style="rounded=1;whiteSpace=wrap;html=1;verticalAlign=top;" vertex="1" parent="1">
          <mxGeometry x="456" y="535" width="80" height="50" as="geometry" />
        </mxCell>
        <mxCell id="pif8Dmov2KubNqpBboYz-3" value="" style="rounded=0;whiteSpace=wrap;html=1;fillColor=#cdeb8b;strokeColor=#36393d;" vertex="1" parent="1">
          <mxGeometry x="491" y="578" width="10" height="10" as="geometry" />
        </mxCell>
        <mxCell id="pif8Dmov2KubNqpBboYz-4" value="FMU" style="rounded=1;whiteSpace=wrap;html=1;verticalAlign=top;" vertex="1" parent="1">
          <mxGeometry x="556" y="535" width="110" height="50" as="geometry" />
        </mxCell>
        <mxCell id="pif8Dmov2KubNqpBboYz-5" value="FMU" style="rounded=1;whiteSpace=wrap;html=1;verticalAlign=top;" vertex="1" parent="1">
          <mxGeometry x="686" y="535" width="80" height="50" as="geometry" />
        </mxCell>
        <mxCell id="pif8Dmov2KubNqpBboYz-6" value="" style="endArrow=none;html=1;rounded=0;exitX=0.5;exitY=0;exitDx=0;exitDy=0;entryX=0.5;entryY=1;entryDx=0;entryDy=0;edgeStyle=orthogonalEdgeStyle;" edge="1" parent="1" source="pif8Dmov2KubNqpBboYz-108" target="pif8Dmov2KubNqpBboYz-3">
          <mxGeometry width="50" height="50" relative="1" as="geometry">
            <mxPoint x="525.5" y="633" as="sourcePoint" />
            <mxPoint x="644" y="592" as="targetPoint" />
          </mxGeometry>
        </mxCell>
        <mxCell id="pif8Dmov2KubNqpBboYz-7" value="" style="rounded=0;whiteSpace=wrap;html=1;fillColor=#cdeb8b;strokeColor=#36393d;" vertex="1" parent="1">
          <mxGeometry x="721" y="579" width="10" height="10" as="geometry" />
        </mxCell>
        <mxCell id="pif8Dmov2KubNqpBboYz-8" value="" style="endArrow=none;html=1;rounded=0;exitX=0.5;exitY=0;exitDx=0;exitDy=0;entryX=0.5;entryY=0;entryDx=0;entryDy=0;edgeStyle=orthogonalEdgeStyle;" edge="1" parent="1" source="pif8Dmov2KubNqpBboYz-107" target="pif8Dmov2KubNqpBboYz-9">
          <mxGeometry width="50" height="50" relative="1" as="geometry">
            <mxPoint x="543" y="633" as="sourcePoint" />
            <mxPoint x="586" y="613" as="targetPoint" />
          </mxGeometry>
        </mxCell>
        <mxCell id="pif8Dmov2KubNqpBboYz-9" value="" style="rounded=0;whiteSpace=wrap;html=1;fillColor=#cdeb8b;strokeColor=#36393d;rotation=-180;" vertex="1" parent="1">
          <mxGeometry x="573" y="579" width="10" height="10" as="geometry" />
        </mxCell>
        <mxCell id="pif8Dmov2KubNqpBboYz-10" value="" style="rounded=0;whiteSpace=wrap;html=1;fillColor=#cdeb8b;strokeColor=#36393d;rotation=-180;" vertex="1" parent="1">
          <mxGeometry x="590" y="579" width="10" height="10" as="geometry" />
        </mxCell>
        <mxCell id="pif8Dmov2KubNqpBboYz-11" value="" style="endArrow=none;html=1;rounded=0;exitX=0.5;exitY=0;exitDx=0;exitDy=0;entryX=0.5;entryY=0;entryDx=0;entryDy=0;edgeStyle=orthogonalEdgeStyle;" edge="1" parent="1" source="pif8Dmov2KubNqpBboYz-86" target="pif8Dmov2KubNqpBboYz-10">
          <mxGeometry width="50" height="50" relative="1" as="geometry">
            <mxPoint x="601.5" y="634" as="sourcePoint" />
            <mxPoint x="731" y="566" as="targetPoint" />
          </mxGeometry>
        </mxCell>
        <mxCell id="pif8Dmov2KubNqpBboYz-12" value="" style="endArrow=none;html=1;rounded=0;exitX=0.5;exitY=0;exitDx=0;exitDy=0;edgeStyle=orthogonalEdgeStyle;entryX=0.5;entryY=0;entryDx=0;entryDy=0;" edge="1" parent="1" source="pif8Dmov2KubNqpBboYz-85" target="pif8Dmov2KubNqpBboYz-60">
          <mxGeometry width="50" height="50" relative="1" as="geometry">
            <mxPoint x="619" y="634" as="sourcePoint" />
            <mxPoint x="624" y="610" as="targetPoint" />
          </mxGeometry>
        </mxCell>
        <mxCell id="pif8Dmov2KubNqpBboYz-13" value="" style="endArrow=none;html=1;rounded=0;exitX=0.5;exitY=0;exitDx=0;exitDy=0;edgeStyle=orthogonalEdgeStyle;entryX=0.5;entryY=1;entryDx=0;entryDy=0;" edge="1" parent="1" source="pif8Dmov2KubNqpBboYz-93" target="pif8Dmov2KubNqpBboYz-7">
          <mxGeometry width="50" height="50" relative="1" as="geometry">
            <mxPoint x="699" y="637" as="sourcePoint" />
            <mxPoint x="727" y="592" as="targetPoint" />
            <Array as="points">
              <mxPoint x="698" y="618" />
              <mxPoint x="726" y="618" />
            </Array>
          </mxGeometry>
        </mxCell>
        <mxCell id="pif8Dmov2KubNqpBboYz-14" value="Bus Simulation FMU" style="rounded=1;whiteSpace=wrap;html=1;verticalAlign=bottom;" vertex="1" parent="1">
          <mxGeometry x="830" y="649" width="427" height="55" as="geometry" />
        </mxCell>
        <mxCell id="pif8Dmov2KubNqpBboYz-15" value="FMU" style="rounded=1;whiteSpace=wrap;html=1;verticalAlign=top;" vertex="1" parent="1">
          <mxGeometry x="940" y="535" width="80" height="50" as="geometry" />
        </mxCell>
        <mxCell id="pif8Dmov2KubNqpBboYz-16" value="" style="rounded=0;whiteSpace=wrap;html=1;fillColor=#cdeb8b;strokeColor=#36393d;" vertex="1" parent="1">
          <mxGeometry x="975" y="578" width="10" height="10" as="geometry" />
        </mxCell>
        <mxCell id="pif8Dmov2KubNqpBboYz-17" value="FMU" style="rounded=1;whiteSpace=wrap;html=1;verticalAlign=top;" vertex="1" parent="1">
          <mxGeometry x="1055.5" y="535" width="80" height="50" as="geometry" />
        </mxCell>
        <mxCell id="pif8Dmov2KubNqpBboYz-18" value="" style="rounded=0;whiteSpace=wrap;html=1;direction=south;fillColor=#cdeb8b;strokeColor=#36393d;" vertex="1" parent="1">
          <mxGeometry x="1072.5" y="578" width="10" height="10" as="geometry" />
        </mxCell>
        <mxCell id="pif8Dmov2KubNqpBboYz-19" value="" style="rounded=0;whiteSpace=wrap;html=1;fillColor=#cdeb8b;strokeColor=#36393d;" vertex="1" parent="1">
          <mxGeometry x="1096" y="578" width="10" height="10" as="geometry" />
        </mxCell>
        <mxCell id="pif8Dmov2KubNqpBboYz-20" value="FMU" style="rounded=1;whiteSpace=wrap;html=1;verticalAlign=top;" vertex="1" parent="1">
          <mxGeometry x="1170" y="535" width="80" height="50" as="geometry" />
        </mxCell>
        <mxCell id="pif8Dmov2KubNqpBboYz-21" value="" style="group;rotation=-180;" vertex="1" connectable="0" parent="1">
          <mxGeometry x="1142" y="632" width="58" height="53" as="geometry" />
        </mxCell>
        <mxCell id="pif8Dmov2KubNqpBboYz-22" value="" style="rounded=0;whiteSpace=wrap;html=1;fillColor=#fff2cc;strokeColor=#d6b656;rotation=-180;" vertex="1" parent="pif8Dmov2KubNqpBboYz-21">
          <mxGeometry x="-6.254901960784313" y="5" width="40" height="25" as="geometry" />
        </mxCell>
        <mxCell id="pif8Dmov2KubNqpBboYz-23" value="" style="rounded=0;whiteSpace=wrap;html=1;fillColor=#cdeb8b;strokeColor=#36393d;rotation=-360;" vertex="1" parent="pif8Dmov2KubNqpBboYz-21">
          <mxGeometry x="17.997450980392156" width="10" height="10" as="geometry" />
        </mxCell>
        <mxCell id="pif8Dmov2KubNqpBboYz-24" value="" style="rounded=0;whiteSpace=wrap;html=1;fillColor=#cdeb8b;strokeColor=#36393d;rotation=-360;" vertex="1" parent="pif8Dmov2KubNqpBboYz-21">
          <mxGeometry x="1.0025490196078426" width="10" height="10" as="geometry" />
        </mxCell>
        <mxCell id="pif8Dmov2KubNqpBboYz-25" value="" style="endArrow=none;html=1;rounded=0;exitX=0.5;exitY=1;exitDx=0;exitDy=0;dashed=1;" edge="1" parent="pif8Dmov2KubNqpBboYz-21" source="pif8Dmov2KubNqpBboYz-23">
          <mxGeometry width="50" height="50" relative="1" as="geometry">
            <mxPoint x="23.941176470588236" y="7" as="sourcePoint" />
            <mxPoint x="23" y="15" as="targetPoint" />
            <Array as="points" />
          </mxGeometry>
        </mxCell>
        <mxCell id="pif8Dmov2KubNqpBboYz-26" value="" style="endArrow=none;html=1;rounded=0;dashed=1;exitX=0.5;exitY=1;exitDx=0;exitDy=0;" edge="1" parent="pif8Dmov2KubNqpBboYz-21" source="pif8Dmov2KubNqpBboYz-24">
          <mxGeometry width="50" height="50" relative="1" as="geometry">
            <mxPoint x="6.68627450980392" y="7" as="sourcePoint" />
            <mxPoint x="6" y="15" as="targetPoint" />
            <Array as="points" />
          </mxGeometry>
        </mxCell>
        <mxCell id="pif8Dmov2KubNqpBboYz-27" value="" style="endArrow=none;html=1;rounded=0;dashed=1;" edge="1" parent="pif8Dmov2KubNqpBboYz-21">
          <mxGeometry width="50" height="50" relative="1" as="geometry">
            <mxPoint x="-0.00019607843137303682" y="14" as="sourcePoint" />
            <mxPoint x="6.039019607843136" y="21" as="targetPoint" />
            <Array as="points">
              <mxPoint x="6.039019607843136" y="19" />
            </Array>
          </mxGeometry>
        </mxCell>
        <mxCell id="pif8Dmov2KubNqpBboYz-28" value="" style="ellipse;whiteSpace=wrap;html=1;rotation=-360;" vertex="1" parent="pif8Dmov2KubNqpBboYz-21">
          <mxGeometry x="4.999019607843136" y="22" width="1.9411764705882353" height="2" as="geometry" />
        </mxCell>
        <mxCell id="pif8Dmov2KubNqpBboYz-29" value="" style="endArrow=none;html=1;rounded=0;dashed=1;exitX=-1.065;exitY=0.469;exitDx=0;exitDy=0;exitPerimeter=0;entryX=0.033;entryY=0.281;entryDx=0;entryDy=0;entryPerimeter=0;" edge="1" parent="pif8Dmov2KubNqpBboYz-21" source="pif8Dmov2KubNqpBboYz-28" target="pif8Dmov2KubNqpBboYz-22">
          <mxGeometry width="50" height="50" relative="1" as="geometry">
            <mxPoint x="1052" y="634" as="sourcePoint" />
            <mxPoint x="1080.5686274509803" y="634" as="targetPoint" />
            <Array as="points">
              <mxPoint x="6" y="23" />
            </Array>
          </mxGeometry>
        </mxCell>
        <mxCell id="pif8Dmov2KubNqpBboYz-30" value="" style="ellipse;whiteSpace=wrap;html=1;rotation=-360;strokeWidth=1;" vertex="1" parent="pif8Dmov2KubNqpBboYz-21">
          <mxGeometry x="22.001176470588234" y="22" width="1.9411764705882353" height="2" as="geometry" />
        </mxCell>
        <mxCell id="pif8Dmov2KubNqpBboYz-31" value="" style="endArrow=none;html=1;rounded=0;dashed=1;" edge="1" parent="pif8Dmov2KubNqpBboYz-21">
          <mxGeometry width="50" height="50" relative="1" as="geometry">
            <mxPoint x="16.999803921568628" y="14" as="sourcePoint" />
            <mxPoint x="23" y="21" as="targetPoint" />
            <Array as="points">
              <mxPoint x="23.0390196078431" y="19" />
            </Array>
          </mxGeometry>
        </mxCell>
        <mxCell id="pif8Dmov2KubNqpBboYz-32" value="" style="rounded=0;whiteSpace=wrap;html=1;fillColor=#cdeb8b;strokeColor=#36393d;" vertex="1" parent="1">
          <mxGeometry x="1208" y="579" width="10" height="10" as="geometry" />
        </mxCell>
        <mxCell id="pif8Dmov2KubNqpBboYz-33" value="" style="endArrow=none;html=1;rounded=0;entryX=0.5;entryY=1;entryDx=0;entryDy=0;exitX=0.5;exitY=0;exitDx=0;exitDy=0;" edge="1" parent="1" source="pif8Dmov2KubNqpBboYz-40" target="pif8Dmov2KubNqpBboYz-19">
          <mxGeometry width="50" height="50" relative="1" as="geometry">
            <mxPoint x="1101" y="632" as="sourcePoint" />
            <mxPoint x="1194" y="640" as="targetPoint" />
          </mxGeometry>
        </mxCell>
        <mxCell id="pif8Dmov2KubNqpBboYz-34" value="" style="endArrow=none;html=1;rounded=0;exitX=0.5;exitY=0;exitDx=0;exitDy=0;entryX=0.5;entryY=0;entryDx=0;entryDy=0;edgeStyle=orthogonalEdgeStyle;" edge="1" parent="1" source="pif8Dmov2KubNqpBboYz-39" target="pif8Dmov2KubNqpBboYz-24">
          <mxGeometry width="50" height="50" relative="1" as="geometry">
            <mxPoint x="1133" y="645" as="sourcePoint" />
            <mxPoint x="1183" y="595" as="targetPoint" />
          </mxGeometry>
        </mxCell>
        <mxCell id="pif8Dmov2KubNqpBboYz-35" value="" style="rounded=0;whiteSpace=wrap;html=1;" vertex="1" parent="1">
          <mxGeometry x="1095.5" y="638" width="10" height="8.333333333333332" as="geometry" />
        </mxCell>
        <mxCell id="pif8Dmov2KubNqpBboYz-36" value="" style="rounded=0;whiteSpace=wrap;html=1;fillColor=#dae8fc;strokeColor=#6c8ebf;" vertex="1" parent="1">
          <mxGeometry x="1089" y="637" width="40" height="25" as="geometry" />
        </mxCell>
        <mxCell id="pif8Dmov2KubNqpBboYz-37" value="" style="endArrow=none;html=1;rounded=0;dashed=1;" edge="1" parent="1">
          <mxGeometry width="50" height="50" relative="1" as="geometry">
            <mxPoint x="1092.5" y="654.6666666666666" as="sourcePoint" />
            <mxPoint x="1126.5" y="654.6666666666666" as="targetPoint" />
          </mxGeometry>
        </mxCell>
        <mxCell id="pif8Dmov2KubNqpBboYz-38" value="" style="endArrow=none;html=1;rounded=0;exitX=0.5;exitY=1;exitDx=0;exitDy=0;dashed=1;" edge="1" parent="1" source="pif8Dmov2KubNqpBboYz-40">
          <mxGeometry width="50" height="50" relative="1" as="geometry">
            <mxPoint x="1100.44" y="646.3333333333334" as="sourcePoint" />
            <mxPoint x="1100.5" y="654.6666666666666" as="targetPoint" />
            <Array as="points">
              <mxPoint x="1100.44" y="654.6666666666666" />
            </Array>
          </mxGeometry>
        </mxCell>
        <mxCell id="pif8Dmov2KubNqpBboYz-39" value="" style="rounded=0;whiteSpace=wrap;html=1;fillColor=#cdeb8b;strokeColor=#36393d;" vertex="1" parent="1">
          <mxGeometry x="1113" y="631" width="10" height="10" as="geometry" />
        </mxCell>
        <mxCell id="pif8Dmov2KubNqpBboYz-40" value="" style="rounded=0;whiteSpace=wrap;html=1;fillColor=#cdeb8b;strokeColor=#36393d;" vertex="1" parent="1">
          <mxGeometry x="1095.5" y="631" width="10" height="10" as="geometry" />
        </mxCell>
        <mxCell id="pif8Dmov2KubNqpBboYz-41" value="" style="endArrow=none;html=1;rounded=0;exitX=0.5;exitY=1;exitDx=0;exitDy=0;dashed=1;" edge="1" parent="1">
          <mxGeometry width="50" height="50" relative="1" as="geometry">
            <mxPoint x="1118" y="641.3333333333334" as="sourcePoint" />
            <mxPoint x="1118" y="654.6666666666666" as="targetPoint" />
            <Array as="points">
              <mxPoint x="1117.94" y="654.6666666666666" />
            </Array>
          </mxGeometry>
        </mxCell>
        <mxCell id="pif8Dmov2KubNqpBboYz-42" value="" style="endArrow=none;html=1;rounded=0;entryX=0.5;entryY=1;entryDx=0;entryDy=0;exitX=0.5;exitY=0;exitDx=0;exitDy=0;" edge="1" parent="1" source="pif8Dmov2KubNqpBboYz-76" target="pif8Dmov2KubNqpBboYz-32">
          <mxGeometry width="50" height="50" relative="1" as="geometry">
            <mxPoint x="1136" y="658" as="sourcePoint" />
            <mxPoint x="1186" y="608" as="targetPoint" />
          </mxGeometry>
        </mxCell>
        <mxCell id="pif8Dmov2KubNqpBboYz-43" value="" style="endArrow=none;html=1;rounded=0;entryX=0.5;entryY=0;entryDx=0;entryDy=0;exitX=0.5;exitY=0;exitDx=0;exitDy=0;edgeStyle=orthogonalEdgeStyle;" edge="1" parent="1" source="pif8Dmov2KubNqpBboYz-23" target="pif8Dmov2KubNqpBboYz-77">
          <mxGeometry width="50" height="50" relative="1" as="geometry">
            <mxPoint x="1136" y="658" as="sourcePoint" />
            <mxPoint x="1186" y="608" as="targetPoint" />
          </mxGeometry>
        </mxCell>
        <mxCell id="pif8Dmov2KubNqpBboYz-44" value="" style="group" vertex="1" connectable="0" parent="1">
          <mxGeometry x="353" y="715" width="122" height="68" as="geometry" />
        </mxCell>
        <mxCell id="pif8Dmov2KubNqpBboYz-132" value="" style="group" vertex="1" connectable="0" parent="pif8Dmov2KubNqpBboYz-44">
          <mxGeometry width="110" height="68" as="geometry" />
        </mxCell>
        <mxCell id="pif8Dmov2KubNqpBboYz-45" value="Bus Terminal" style="text;html=1;align=left;verticalAlign=middle;resizable=0;points=[];autosize=1;strokeColor=none;fillColor=none;fontSize=10;" vertex="1" parent="pif8Dmov2KubNqpBboYz-132">
          <mxGeometry x="12" width="80" height="30" as="geometry" />
        </mxCell>
        <mxCell id="pif8Dmov2KubNqpBboYz-46" value="" style="rounded=0;whiteSpace=wrap;html=1;fillColor=#cdeb8b;strokeColor=#36393d;" vertex="1" parent="pif8Dmov2KubNqpBboYz-132">
          <mxGeometry y="10" width="10" height="10" as="geometry" />
        </mxCell>
        <mxCell id="pif8Dmov2KubNqpBboYz-47" value="" style="rounded=0;whiteSpace=wrap;html=1;fillColor=#dae8fc;strokeColor=#6c8ebf;" vertex="1" parent="pif8Dmov2KubNqpBboYz-132">
          <mxGeometry y="30" width="10" height="10" as="geometry" />
        </mxCell>
        <mxCell id="pif8Dmov2KubNqpBboYz-48" value="" style="rounded=0;whiteSpace=wrap;html=1;fillColor=#fff2cc;strokeColor=#d6b656;" vertex="1" parent="pif8Dmov2KubNqpBboYz-132">
          <mxGeometry y="50" width="10" height="10" as="geometry" />
        </mxCell>
        <mxCell id="pif8Dmov2KubNqpBboYz-49" value="Segment Terminal" style="text;html=1;align=left;verticalAlign=middle;resizable=0;points=[];autosize=1;strokeColor=none;fillColor=none;fontSize=10;" vertex="1" parent="pif8Dmov2KubNqpBboYz-132">
          <mxGeometry x="12" y="23" width="98" height="24" as="geometry" />
        </mxCell>
        <mxCell id="pif8Dmov2KubNqpBboYz-50" value="Switch Terminal" style="text;html=1;align=left;verticalAlign=middle;resizable=0;points=[];autosize=1;strokeColor=none;fillColor=none;fontSize=10;" vertex="1" parent="pif8Dmov2KubNqpBboYz-132">
          <mxGeometry x="12" y="44" width="88" height="24" as="geometry" />
        </mxCell>
        <mxCell id="pif8Dmov2KubNqpBboYz-58" value="" style="group;rotation=0;" vertex="1" connectable="0" parent="1">
          <mxGeometry x="601" y="572" width="56" height="30" as="geometry" />
        </mxCell>
        <mxCell id="pif8Dmov2KubNqpBboYz-59" value="" style="rounded=0;whiteSpace=wrap;html=1;fillColor=#fff2cc;strokeColor=#d6b656;rotation=0;" vertex="1" parent="pif8Dmov2KubNqpBboYz-58">
          <mxGeometry x="10" width="40" height="25" as="geometry" />
        </mxCell>
        <mxCell id="pif8Dmov2KubNqpBboYz-60" value="" style="rounded=0;whiteSpace=wrap;html=1;fillColor=#cdeb8b;strokeColor=#36393d;rotation=-180;" vertex="1" parent="pif8Dmov2KubNqpBboYz-58">
          <mxGeometry x="16" y="20" width="10" height="10" as="geometry" />
        </mxCell>
        <mxCell id="pif8Dmov2KubNqpBboYz-61" value="" style="rounded=0;whiteSpace=wrap;html=1;fillColor=#cdeb8b;strokeColor=#36393d;rotation=-180;" vertex="1" parent="pif8Dmov2KubNqpBboYz-58">
          <mxGeometry x="33" y="20" width="10" height="10" as="geometry" />
        </mxCell>
        <mxCell id="pif8Dmov2KubNqpBboYz-62" value="" style="endArrow=none;html=1;rounded=0;exitX=0.5;exitY=1;exitDx=0;exitDy=0;dashed=1;" edge="1" parent="pif8Dmov2KubNqpBboYz-58" source="pif8Dmov2KubNqpBboYz-60">
          <mxGeometry width="50" height="50" relative="1" as="geometry">
            <mxPoint x="20" y="23" as="sourcePoint" />
            <mxPoint x="21" y="15" as="targetPoint" />
            <Array as="points" />
          </mxGeometry>
        </mxCell>
        <mxCell id="pif8Dmov2KubNqpBboYz-63" value="" style="endArrow=none;html=1;rounded=0;dashed=1;exitX=0.5;exitY=1;exitDx=0;exitDy=0;" edge="1" parent="pif8Dmov2KubNqpBboYz-58" source="pif8Dmov2KubNqpBboYz-61">
          <mxGeometry width="50" height="50" relative="1" as="geometry">
            <mxPoint x="37" y="23" as="sourcePoint" />
            <mxPoint x="38" y="15" as="targetPoint" />
            <Array as="points" />
          </mxGeometry>
        </mxCell>
        <mxCell id="pif8Dmov2KubNqpBboYz-64" value="" style="endArrow=none;html=1;rounded=0;dashed=1;" edge="1" parent="pif8Dmov2KubNqpBboYz-58">
          <mxGeometry width="50" height="50" relative="1" as="geometry">
            <mxPoint x="44" y="16" as="sourcePoint" />
            <mxPoint x="38" y="9" as="targetPoint" />
            <Array as="points">
              <mxPoint x="38" y="11" />
            </Array>
          </mxGeometry>
        </mxCell>
        <mxCell id="pif8Dmov2KubNqpBboYz-65" value="" style="ellipse;whiteSpace=wrap;html=1;rotation=-180;" vertex="1" parent="pif8Dmov2KubNqpBboYz-58">
          <mxGeometry x="37" y="6" width="1.9411764705882353" height="2" as="geometry" />
        </mxCell>
        <mxCell id="pif8Dmov2KubNqpBboYz-66" value="" style="endArrow=none;html=1;rounded=0;dashed=1;exitX=-1.065;exitY=0.469;exitDx=0;exitDy=0;exitPerimeter=0;entryX=0.033;entryY=0.281;entryDx=0;entryDy=0;entryPerimeter=0;" edge="1" parent="pif8Dmov2KubNqpBboYz-58" source="pif8Dmov2KubNqpBboYz-65" target="pif8Dmov2KubNqpBboYz-59">
          <mxGeometry width="50" height="50" relative="1" as="geometry">
            <mxPoint x="-1008" y="-604" as="sourcePoint" />
            <mxPoint x="-1037" y="-604" as="targetPoint" />
            <Array as="points">
              <mxPoint x="38" y="7" />
            </Array>
          </mxGeometry>
        </mxCell>
        <mxCell id="pif8Dmov2KubNqpBboYz-67" value="" style="ellipse;whiteSpace=wrap;html=1;rotation=-180;strokeWidth=1;" vertex="1" parent="pif8Dmov2KubNqpBboYz-58">
          <mxGeometry x="20" y="6" width="1.9411764705882353" height="2" as="geometry" />
        </mxCell>
        <mxCell id="pif8Dmov2KubNqpBboYz-68" value="" style="endArrow=none;html=1;rounded=0;dashed=1;" edge="1" parent="pif8Dmov2KubNqpBboYz-58">
          <mxGeometry width="50" height="50" relative="1" as="geometry">
            <mxPoint x="27" y="16" as="sourcePoint" />
            <mxPoint x="21" y="9" as="targetPoint" />
            <Array as="points">
              <mxPoint x="21" y="11" />
            </Array>
          </mxGeometry>
        </mxCell>
        <mxCell id="pif8Dmov2KubNqpBboYz-70" value="" style="endArrow=none;html=1;rounded=0;entryX=0.5;entryY=0;entryDx=0;entryDy=0;exitX=0.5;exitY=0;exitDx=0;exitDy=0;edgeStyle=orthogonalEdgeStyle;" edge="1" parent="1" source="pif8Dmov2KubNqpBboYz-94" target="pif8Dmov2KubNqpBboYz-61">
          <mxGeometry width="50" height="50" relative="1" as="geometry">
            <mxPoint x="688.5" y="636" as="sourcePoint" />
            <mxPoint x="774" y="583" as="targetPoint" />
          </mxGeometry>
        </mxCell>
        <mxCell id="pif8Dmov2KubNqpBboYz-71" value="" style="group" vertex="1" connectable="0" parent="1">
          <mxGeometry x="1184" y="631" width="62" height="69" as="geometry" />
        </mxCell>
        <mxCell id="pif8Dmov2KubNqpBboYz-72" value="" style="rounded=0;whiteSpace=wrap;html=1;" vertex="1" parent="pif8Dmov2KubNqpBboYz-71">
          <mxGeometry x="6.5" y="7" width="10" height="8.333333333333332" as="geometry" />
        </mxCell>
        <mxCell id="pif8Dmov2KubNqpBboYz-73" value="" style="rounded=0;whiteSpace=wrap;html=1;fillColor=#dae8fc;strokeColor=#6c8ebf;" vertex="1" parent="pif8Dmov2KubNqpBboYz-71">
          <mxGeometry y="6" width="40" height="25" as="geometry" />
        </mxCell>
        <mxCell id="pif8Dmov2KubNqpBboYz-74" value="" style="endArrow=none;html=1;rounded=0;dashed=1;" edge="1" parent="pif8Dmov2KubNqpBboYz-71">
          <mxGeometry width="50" height="50" relative="1" as="geometry">
            <mxPoint x="3.5" y="23.66666666666663" as="sourcePoint" />
            <mxPoint x="37.5" y="23.66666666666663" as="targetPoint" />
          </mxGeometry>
        </mxCell>
        <mxCell id="pif8Dmov2KubNqpBboYz-75" value="" style="endArrow=none;html=1;rounded=0;exitX=0.5;exitY=1;exitDx=0;exitDy=0;dashed=1;" edge="1" parent="pif8Dmov2KubNqpBboYz-71" source="pif8Dmov2KubNqpBboYz-77">
          <mxGeometry width="50" height="50" relative="1" as="geometry">
            <mxPoint x="11.440000000000055" y="15.333333333333371" as="sourcePoint" />
            <mxPoint x="11.5" y="23.66666666666663" as="targetPoint" />
            <Array as="points">
              <mxPoint x="11.440000000000055" y="23.66666666666663" />
            </Array>
          </mxGeometry>
        </mxCell>
        <mxCell id="pif8Dmov2KubNqpBboYz-76" value="" style="rounded=0;whiteSpace=wrap;html=1;fillColor=#cdeb8b;strokeColor=#36393d;" vertex="1" parent="pif8Dmov2KubNqpBboYz-71">
          <mxGeometry x="24" width="10" height="10" as="geometry" />
        </mxCell>
        <mxCell id="pif8Dmov2KubNqpBboYz-77" value="" style="rounded=0;whiteSpace=wrap;html=1;fillColor=#cdeb8b;strokeColor=#36393d;" vertex="1" parent="pif8Dmov2KubNqpBboYz-71">
          <mxGeometry x="6.5" width="10" height="10" as="geometry" />
        </mxCell>
        <mxCell id="pif8Dmov2KubNqpBboYz-78" value="" style="endArrow=none;html=1;rounded=0;exitX=0.5;exitY=1;exitDx=0;exitDy=0;dashed=1;" edge="1" parent="pif8Dmov2KubNqpBboYz-71">
          <mxGeometry width="50" height="50" relative="1" as="geometry">
            <mxPoint x="29" y="10.333333333333371" as="sourcePoint" />
            <mxPoint x="29" y="23.66666666666663" as="targetPoint" />
            <Array as="points">
              <mxPoint x="28.940000000000055" y="23.66666666666663" />
            </Array>
          </mxGeometry>
        </mxCell>
        <mxCell id="pif8Dmov2KubNqpBboYz-79" value="point-to-point" style="text;html=1;align=center;verticalAlign=middle;resizable=0;points=[];autosize=1;strokeColor=none;fillColor=none;" vertex="1" parent="pif8Dmov2KubNqpBboYz-71">
          <mxGeometry x="-28" y="24" width="90" height="30" as="geometry" />
        </mxCell>
        <mxCell id="pif8Dmov2KubNqpBboYz-80" value="" style="group" vertex="1" connectable="0" parent="1">
          <mxGeometry x="583" y="634" width="40" height="31" as="geometry" />
        </mxCell>
        <mxCell id="pif8Dmov2KubNqpBboYz-81" value="" style="rounded=0;whiteSpace=wrap;html=1;" vertex="1" parent="pif8Dmov2KubNqpBboYz-80">
          <mxGeometry x="6.5" y="7" width="10" height="8.333333333333332" as="geometry" />
        </mxCell>
        <mxCell id="pif8Dmov2KubNqpBboYz-82" value="" style="rounded=0;whiteSpace=wrap;html=1;fillColor=#dae8fc;strokeColor=#6c8ebf;" vertex="1" parent="pif8Dmov2KubNqpBboYz-80">
          <mxGeometry y="6" width="40" height="25" as="geometry" />
        </mxCell>
        <mxCell id="pif8Dmov2KubNqpBboYz-83" value="" style="endArrow=none;html=1;rounded=0;dashed=1;" edge="1" parent="pif8Dmov2KubNqpBboYz-80">
          <mxGeometry width="50" height="50" relative="1" as="geometry">
            <mxPoint x="3.5" y="23.66666666666663" as="sourcePoint" />
            <mxPoint x="37.5" y="23.66666666666663" as="targetPoint" />
          </mxGeometry>
        </mxCell>
        <mxCell id="pif8Dmov2KubNqpBboYz-84" value="" style="endArrow=none;html=1;rounded=0;exitX=0.5;exitY=1;exitDx=0;exitDy=0;dashed=1;" edge="1" parent="pif8Dmov2KubNqpBboYz-80" source="pif8Dmov2KubNqpBboYz-86">
          <mxGeometry width="50" height="50" relative="1" as="geometry">
            <mxPoint x="11.440000000000055" y="15.333333333333371" as="sourcePoint" />
            <mxPoint x="11.5" y="23.66666666666663" as="targetPoint" />
            <Array as="points">
              <mxPoint x="11.440000000000055" y="23.66666666666663" />
            </Array>
          </mxGeometry>
        </mxCell>
        <mxCell id="pif8Dmov2KubNqpBboYz-85" value="" style="rounded=0;whiteSpace=wrap;html=1;fillColor=#cdeb8b;strokeColor=#36393d;" vertex="1" parent="pif8Dmov2KubNqpBboYz-80">
          <mxGeometry x="24" width="10" height="10" as="geometry" />
        </mxCell>
        <mxCell id="pif8Dmov2KubNqpBboYz-86" value="" style="rounded=0;whiteSpace=wrap;html=1;fillColor=#cdeb8b;strokeColor=#36393d;" vertex="1" parent="pif8Dmov2KubNqpBboYz-80">
          <mxGeometry x="6.5" width="10" height="10" as="geometry" />
        </mxCell>
        <mxCell id="pif8Dmov2KubNqpBboYz-87" value="" style="endArrow=none;html=1;rounded=0;exitX=0.5;exitY=1;exitDx=0;exitDy=0;dashed=1;" edge="1" parent="pif8Dmov2KubNqpBboYz-80">
          <mxGeometry width="50" height="50" relative="1" as="geometry">
            <mxPoint x="29" y="10.333333333333371" as="sourcePoint" />
            <mxPoint x="29" y="23.66666666666663" as="targetPoint" />
            <Array as="points">
              <mxPoint x="28.940000000000055" y="23.66666666666663" />
            </Array>
          </mxGeometry>
        </mxCell>
        <mxCell id="pif8Dmov2KubNqpBboYz-88" value="" style="group" vertex="1" connectable="0" parent="1">
          <mxGeometry x="669" y="634" width="40" height="31" as="geometry" />
        </mxCell>
        <mxCell id="pif8Dmov2KubNqpBboYz-89" value="" style="rounded=0;whiteSpace=wrap;html=1;" vertex="1" parent="pif8Dmov2KubNqpBboYz-88">
          <mxGeometry x="6.5" y="7" width="10" height="8.333333333333332" as="geometry" />
        </mxCell>
        <mxCell id="pif8Dmov2KubNqpBboYz-90" value="" style="rounded=0;whiteSpace=wrap;html=1;fillColor=#dae8fc;strokeColor=#6c8ebf;" vertex="1" parent="pif8Dmov2KubNqpBboYz-88">
          <mxGeometry y="6" width="40" height="25" as="geometry" />
        </mxCell>
        <mxCell id="pif8Dmov2KubNqpBboYz-91" value="" style="endArrow=none;html=1;rounded=0;dashed=1;" edge="1" parent="pif8Dmov2KubNqpBboYz-88">
          <mxGeometry width="50" height="50" relative="1" as="geometry">
            <mxPoint x="3.5" y="23.66666666666663" as="sourcePoint" />
            <mxPoint x="37.5" y="23.66666666666663" as="targetPoint" />
          </mxGeometry>
        </mxCell>
        <mxCell id="pif8Dmov2KubNqpBboYz-92" value="" style="endArrow=none;html=1;rounded=0;exitX=0.5;exitY=1;exitDx=0;exitDy=0;dashed=1;" edge="1" parent="pif8Dmov2KubNqpBboYz-88" source="pif8Dmov2KubNqpBboYz-94">
          <mxGeometry width="50" height="50" relative="1" as="geometry">
            <mxPoint x="11.440000000000055" y="15.333333333333371" as="sourcePoint" />
            <mxPoint x="11.5" y="23.66666666666663" as="targetPoint" />
            <Array as="points">
              <mxPoint x="11.440000000000055" y="23.66666666666663" />
            </Array>
          </mxGeometry>
        </mxCell>
        <mxCell id="pif8Dmov2KubNqpBboYz-93" value="" style="rounded=0;whiteSpace=wrap;html=1;fillColor=#cdeb8b;strokeColor=#36393d;" vertex="1" parent="pif8Dmov2KubNqpBboYz-88">
          <mxGeometry x="24" width="10" height="10" as="geometry" />
        </mxCell>
        <mxCell id="pif8Dmov2KubNqpBboYz-94" value="" style="rounded=0;whiteSpace=wrap;html=1;fillColor=#cdeb8b;strokeColor=#36393d;" vertex="1" parent="pif8Dmov2KubNqpBboYz-88">
          <mxGeometry x="6.5" width="10" height="10" as="geometry" />
        </mxCell>
        <mxCell id="pif8Dmov2KubNqpBboYz-95" value="" style="endArrow=none;html=1;rounded=0;exitX=0.5;exitY=1;exitDx=0;exitDy=0;dashed=1;" edge="1" parent="pif8Dmov2KubNqpBboYz-88">
          <mxGeometry width="50" height="50" relative="1" as="geometry">
            <mxPoint x="29" y="10.333333333333371" as="sourcePoint" />
            <mxPoint x="29" y="23.66666666666663" as="targetPoint" />
            <Array as="points">
              <mxPoint x="28.940000000000055" y="23.66666666666663" />
            </Array>
          </mxGeometry>
        </mxCell>
        <mxCell id="pif8Dmov2KubNqpBboYz-96" value="point-to-point" style="text;html=1;align=center;verticalAlign=middle;resizable=0;points=[];autosize=1;strokeColor=none;fillColor=none;" vertex="1" parent="1">
          <mxGeometry x="559" y="658" width="90" height="30" as="geometry" />
        </mxCell>
        <mxCell id="pif8Dmov2KubNqpBboYz-97" value="FMU" style="rounded=1;whiteSpace=wrap;html=1;verticalAlign=top;" vertex="1" parent="1">
          <mxGeometry x="356" y="535" width="80" height="50" as="geometry" />
        </mxCell>
        <mxCell id="pif8Dmov2KubNqpBboYz-98" value="multidrop" style="text;html=1;align=center;verticalAlign=middle;resizable=0;points=[];autosize=1;strokeColor=none;fillColor=none;" vertex="1" parent="1">
          <mxGeometry x="461" y="659" width="70" height="30" as="geometry" />
        </mxCell>
        <mxCell id="pif8Dmov2KubNqpBboYz-99" value="" style="rounded=0;whiteSpace=wrap;html=1;fillColor=#cdeb8b;strokeColor=#36393d;" vertex="1" parent="1">
          <mxGeometry x="391" y="580" width="10" height="10" as="geometry" />
        </mxCell>
        <mxCell id="pif8Dmov2KubNqpBboYz-100" value="" style="endArrow=none;html=1;rounded=0;entryX=0.5;entryY=1;entryDx=0;entryDy=0;exitX=0.5;exitY=0;exitDx=0;exitDy=0;edgeStyle=orthogonalEdgeStyle;" edge="1" parent="1" source="pif8Dmov2KubNqpBboYz-112" target="pif8Dmov2KubNqpBboYz-99">
          <mxGeometry width="50" height="50" relative="1" as="geometry">
            <mxPoint x="521" y="586" as="sourcePoint" />
            <mxPoint x="571" y="536" as="targetPoint" />
          </mxGeometry>
        </mxCell>
        <mxCell id="pif8Dmov2KubNqpBboYz-101" value="FMU" style="rounded=1;whiteSpace=wrap;html=1;verticalAlign=top;" vertex="1" parent="1">
          <mxGeometry x="832" y="535" width="80" height="50" as="geometry" />
        </mxCell>
        <mxCell id="pif8Dmov2KubNqpBboYz-102" value="" style="group" vertex="1" connectable="0" parent="1">
          <mxGeometry x="467" y="634" width="57" height="31" as="geometry" />
        </mxCell>
        <mxCell id="pif8Dmov2KubNqpBboYz-103" value="" style="rounded=0;whiteSpace=wrap;html=1;" vertex="1" parent="pif8Dmov2KubNqpBboYz-102">
          <mxGeometry x="23.5" y="7" width="10" height="8.333333333333332" as="geometry" />
        </mxCell>
        <mxCell id="pif8Dmov2KubNqpBboYz-104" value="" style="rounded=0;whiteSpace=wrap;html=1;fillColor=#dae8fc;strokeColor=#6c8ebf;" vertex="1" parent="pif8Dmov2KubNqpBboYz-102">
          <mxGeometry y="6" width="57" height="25" as="geometry" />
        </mxCell>
        <mxCell id="pif8Dmov2KubNqpBboYz-105" value="" style="endArrow=none;html=1;rounded=0;dashed=1;exitX=0.699;exitY=-0.043;exitDx=0;exitDy=0;exitPerimeter=0;" edge="1" parent="pif8Dmov2KubNqpBboYz-102">
          <mxGeometry width="50" height="50" relative="1" as="geometry">
            <mxPoint x="4" y="23.710000000000036" as="sourcePoint" />
            <mxPoint x="52.56999999999999" y="23.66666666666663" as="targetPoint" />
          </mxGeometry>
        </mxCell>
        <mxCell id="pif8Dmov2KubNqpBboYz-106" value="" style="endArrow=none;html=1;rounded=0;exitX=0.5;exitY=1;exitDx=0;exitDy=0;dashed=1;" edge="1" parent="pif8Dmov2KubNqpBboYz-102" source="pif8Dmov2KubNqpBboYz-108">
          <mxGeometry width="50" height="50" relative="1" as="geometry">
            <mxPoint x="28.440000000000055" y="15.333333333333371" as="sourcePoint" />
            <mxPoint x="28.5" y="23.66666666666663" as="targetPoint" />
            <Array as="points">
              <mxPoint x="28.440000000000055" y="23.66666666666663" />
            </Array>
          </mxGeometry>
        </mxCell>
        <mxCell id="pif8Dmov2KubNqpBboYz-107" value="" style="rounded=0;whiteSpace=wrap;html=1;fillColor=#cdeb8b;strokeColor=#36393d;" vertex="1" parent="pif8Dmov2KubNqpBboYz-102">
          <mxGeometry x="41" width="10" height="10" as="geometry" />
        </mxCell>
        <mxCell id="pif8Dmov2KubNqpBboYz-108" value="" style="rounded=0;whiteSpace=wrap;html=1;fillColor=#cdeb8b;strokeColor=#36393d;" vertex="1" parent="pif8Dmov2KubNqpBboYz-102">
          <mxGeometry x="23.5" width="10" height="10" as="geometry" />
        </mxCell>
        <mxCell id="pif8Dmov2KubNqpBboYz-109" value="" style="endArrow=none;html=1;rounded=0;exitX=0.5;exitY=1;exitDx=0;exitDy=0;dashed=1;" edge="1" parent="pif8Dmov2KubNqpBboYz-102">
          <mxGeometry width="50" height="50" relative="1" as="geometry">
            <mxPoint x="46" y="10.333333333333371" as="sourcePoint" />
            <mxPoint x="46" y="23.66666666666663" as="targetPoint" />
            <Array as="points">
              <mxPoint x="45.940000000000055" y="23.66666666666663" />
            </Array>
          </mxGeometry>
        </mxCell>
        <mxCell id="pif8Dmov2KubNqpBboYz-110" value="" style="endArrow=none;html=1;rounded=0;exitX=0.5;exitY=1;exitDx=0;exitDy=0;dashed=1;" edge="1" parent="pif8Dmov2KubNqpBboYz-102">
          <mxGeometry width="50" height="50" relative="1" as="geometry">
            <mxPoint x="9.999999999999943" y="10" as="sourcePoint" />
            <mxPoint x="10" y="24" as="targetPoint" />
          </mxGeometry>
        </mxCell>
        <mxCell id="pif8Dmov2KubNqpBboYz-111" value="" style="endArrow=none;html=1;rounded=0;exitX=0.5;exitY=1;exitDx=0;exitDy=0;dashed=1;" edge="1" parent="pif8Dmov2KubNqpBboYz-102" target="pif8Dmov2KubNqpBboYz-112">
          <mxGeometry width="50" height="50" relative="1" as="geometry">
            <mxPoint x="11.560000000000002" y="10" as="sourcePoint" />
            <mxPoint x="11.060000000000002" y="23.66666666666663" as="targetPoint" />
            <Array as="points" />
          </mxGeometry>
        </mxCell>
        <mxCell id="pif8Dmov2KubNqpBboYz-112" value="" style="rounded=0;whiteSpace=wrap;html=1;fillColor=#cdeb8b;strokeColor=#36393d;" vertex="1" parent="pif8Dmov2KubNqpBboYz-102">
          <mxGeometry x="5" width="10" height="10" as="geometry" />
        </mxCell>
        <mxCell id="pif8Dmov2KubNqpBboYz-113" value="" style="group" vertex="1" connectable="0" parent="1">
          <mxGeometry x="951" y="634" width="65" height="54" as="geometry" />
        </mxCell>
        <mxCell id="pif8Dmov2KubNqpBboYz-114" value="" style="rounded=0;whiteSpace=wrap;html=1;" vertex="1" parent="pif8Dmov2KubNqpBboYz-113">
          <mxGeometry x="23.5" y="7" width="10" height="8.333333333333332" as="geometry" />
        </mxCell>
        <mxCell id="pif8Dmov2KubNqpBboYz-115" value="" style="rounded=0;whiteSpace=wrap;html=1;fillColor=#dae8fc;strokeColor=#6c8ebf;" vertex="1" parent="pif8Dmov2KubNqpBboYz-113">
          <mxGeometry y="6" width="57" height="25" as="geometry" />
        </mxCell>
        <mxCell id="pif8Dmov2KubNqpBboYz-116" value="" style="endArrow=none;html=1;rounded=0;dashed=1;exitX=0.699;exitY=-0.043;exitDx=0;exitDy=0;exitPerimeter=0;" edge="1" parent="pif8Dmov2KubNqpBboYz-113">
          <mxGeometry width="50" height="50" relative="1" as="geometry">
            <mxPoint x="4" y="23.710000000000036" as="sourcePoint" />
            <mxPoint x="52.56999999999999" y="23.66666666666663" as="targetPoint" />
          </mxGeometry>
        </mxCell>
        <mxCell id="pif8Dmov2KubNqpBboYz-117" value="" style="endArrow=none;html=1;rounded=0;exitX=0.5;exitY=1;exitDx=0;exitDy=0;dashed=1;" edge="1" parent="pif8Dmov2KubNqpBboYz-113" source="pif8Dmov2KubNqpBboYz-119">
          <mxGeometry width="50" height="50" relative="1" as="geometry">
            <mxPoint x="28.440000000000055" y="15.333333333333371" as="sourcePoint" />
            <mxPoint x="28.5" y="23.66666666666663" as="targetPoint" />
            <Array as="points">
              <mxPoint x="28.440000000000055" y="23.66666666666663" />
            </Array>
          </mxGeometry>
        </mxCell>
        <mxCell id="pif8Dmov2KubNqpBboYz-118" value="" style="rounded=0;whiteSpace=wrap;html=1;fillColor=#cdeb8b;strokeColor=#36393d;" vertex="1" parent="pif8Dmov2KubNqpBboYz-113">
          <mxGeometry x="41" width="10" height="10" as="geometry" />
        </mxCell>
        <mxCell id="pif8Dmov2KubNqpBboYz-119" value="" style="rounded=0;whiteSpace=wrap;html=1;fillColor=#cdeb8b;strokeColor=#36393d;" vertex="1" parent="pif8Dmov2KubNqpBboYz-113">
          <mxGeometry x="23.5" width="10" height="10" as="geometry" />
        </mxCell>
        <mxCell id="pif8Dmov2KubNqpBboYz-120" value="" style="endArrow=none;html=1;rounded=0;exitX=0.5;exitY=1;exitDx=0;exitDy=0;dashed=1;" edge="1" parent="pif8Dmov2KubNqpBboYz-113">
          <mxGeometry width="50" height="50" relative="1" as="geometry">
            <mxPoint x="46" y="10.333333333333371" as="sourcePoint" />
            <mxPoint x="46" y="23.66666666666663" as="targetPoint" />
            <Array as="points">
              <mxPoint x="45.940000000000055" y="23.66666666666663" />
            </Array>
          </mxGeometry>
        </mxCell>
        <mxCell id="pif8Dmov2KubNqpBboYz-121" value="" style="endArrow=none;html=1;rounded=0;exitX=0.5;exitY=1;exitDx=0;exitDy=0;dashed=1;" edge="1" parent="pif8Dmov2KubNqpBboYz-113">
          <mxGeometry width="50" height="50" relative="1" as="geometry">
            <mxPoint x="9.999999999999943" y="10" as="sourcePoint" />
            <mxPoint x="10" y="24" as="targetPoint" />
          </mxGeometry>
        </mxCell>
        <mxCell id="pif8Dmov2KubNqpBboYz-122" value="" style="endArrow=none;html=1;rounded=0;exitX=0.5;exitY=1;exitDx=0;exitDy=0;dashed=1;" edge="1" parent="pif8Dmov2KubNqpBboYz-113" target="pif8Dmov2KubNqpBboYz-123">
          <mxGeometry width="50" height="50" relative="1" as="geometry">
            <mxPoint x="11.560000000000002" y="10" as="sourcePoint" />
            <mxPoint x="11.060000000000002" y="23.66666666666663" as="targetPoint" />
            <Array as="points" />
          </mxGeometry>
        </mxCell>
        <mxCell id="pif8Dmov2KubNqpBboYz-123" value="" style="rounded=0;whiteSpace=wrap;html=1;fillColor=#cdeb8b;strokeColor=#36393d;" vertex="1" parent="pif8Dmov2KubNqpBboYz-113">
          <mxGeometry x="5" width="10" height="10" as="geometry" />
        </mxCell>
        <mxCell id="pif8Dmov2KubNqpBboYz-124" value="multidrop" style="text;html=1;align=center;verticalAlign=middle;resizable=0;points=[];autosize=1;strokeColor=none;fillColor=none;" vertex="1" parent="pif8Dmov2KubNqpBboYz-113">
          <mxGeometry x="-5" y="24" width="70" height="30" as="geometry" />
        </mxCell>
        <mxCell id="pif8Dmov2KubNqpBboYz-125" value="" style="rounded=0;whiteSpace=wrap;html=1;fillColor=#cdeb8b;strokeColor=#36393d;" vertex="1" parent="1">
          <mxGeometry x="867" y="579" width="10" height="10" as="geometry" />
        </mxCell>
        <mxCell id="pif8Dmov2KubNqpBboYz-126" value="" style="endArrow=none;html=1;rounded=0;exitX=0.5;exitY=0;exitDx=0;exitDy=0;entryX=0.5;entryY=1;entryDx=0;entryDy=0;" edge="1" parent="1" source="pif8Dmov2KubNqpBboYz-119" target="pif8Dmov2KubNqpBboYz-16">
          <mxGeometry width="50" height="50" relative="1" as="geometry">
            <mxPoint x="976" y="612" as="sourcePoint" />
            <mxPoint x="1026" y="562" as="targetPoint" />
          </mxGeometry>
        </mxCell>
        <mxCell id="pif8Dmov2KubNqpBboYz-127" value="" style="endArrow=none;html=1;rounded=0;entryX=0.5;entryY=1;entryDx=0;entryDy=0;exitX=0.5;exitY=0;exitDx=0;exitDy=0;edgeStyle=orthogonalEdgeStyle;" edge="1" parent="1" source="pif8Dmov2KubNqpBboYz-123" target="pif8Dmov2KubNqpBboYz-125">
          <mxGeometry width="50" height="50" relative="1" as="geometry">
            <mxPoint x="976" y="612" as="sourcePoint" />
            <mxPoint x="1026" y="562" as="targetPoint" />
          </mxGeometry>
        </mxCell>
        <mxCell id="pif8Dmov2KubNqpBboYz-128" value="" style="endArrow=none;html=1;rounded=0;entryX=1;entryY=0.5;entryDx=0;entryDy=0;exitX=0.5;exitY=0;exitDx=0;exitDy=0;edgeStyle=orthogonalEdgeStyle;" edge="1" parent="1" source="pif8Dmov2KubNqpBboYz-118" target="pif8Dmov2KubNqpBboYz-18">
          <mxGeometry width="50" height="50" relative="1" as="geometry">
            <mxPoint x="971" y="644" as="sourcePoint" />
            <mxPoint x="882" y="599" as="targetPoint" />
          </mxGeometry>
        </mxCell>
        <mxCell id="pif8Dmov2KubNqpBboYz-129" value="point-to-point" style="text;html=1;align=center;verticalAlign=middle;resizable=0;points=[];autosize=1;strokeColor=none;fillColor=none;" vertex="1" parent="1">
          <mxGeometry x="643" y="658" width="90" height="30" as="geometry" />
        </mxCell>
        <mxCell id="pif8Dmov2KubNqpBboYz-130" value="point-to-point" style="text;html=1;align=center;verticalAlign=middle;resizable=0;points=[];autosize=1;strokeColor=none;fillColor=none;" vertex="1" parent="1">
          <mxGeometry x="1058" y="659" width="90" height="30" as="geometry" />
        </mxCell>
        <mxCell id="pif8Dmov2KubNqpBboYz-131" value="switch" style="text;html=1;align=center;verticalAlign=middle;resizable=0;points=[];autosize=1;strokeColor=none;fillColor=none;" vertex="1" parent="1">
          <mxGeometry x="1129" y="670" width="51" height="26" as="geometry" />
        </mxCell>
        <mxCell id="pif8Dmov2KubNqpBboYz-69" value="switch" style="text;html=1;align=center;verticalAlign=middle;resizable=0;points=[];autosize=1;strokeColor=none;fillColor=none;" vertex="1" parent="1">
          <mxGeometry x="606" y="547" width="51" height="26" as="geometry" />
        </mxCell>
      </root>
    </mxGraphModel>
  </diagram>
</mxfile>
